snake_rectilinear_motion_ik.mot
version=1
nRows=20
nColumns=2
inDegrees=yes

Units are S.I. units (second, meters, Newtons, ...)
Angles are in degrees.

endheader
time	rib1_tx
0.00	0.000
0.01	0.001
0.02	0.002
0.03	0.003
0.04	0.004
0.06	0.005
0.07	0.006
0.08	0.007
0.09	0.008
0.10	0.009
0.11	0.0010
0.12	0.0011
0.13	0.0012
0.14	0.0013
0.15	0.0014
0.16	0.0015
0.17	0.0016
0.18	0.0017
0.19	0.0018
0.20	0.0019
